<?xml version="1.0" standalone="no"?>
<!DOCTYPE svg PUBLIC "-//W3C//DTD SVG 20010904//EN"
 "http://www.w3.org/TR/2001/REC-SVG-20010904/DTD/svg10.dtd">
<svg version="1.0" xmlns="http://www.w3.org/2000/svg"
 width="512.000000pt" height="512.000000pt" viewBox="0 0 512.000000 512.000000"
 preserveAspectRatio="xMidYMid meet">
<metadata>
Created by potrace 1.15, written by Peter Selinger 2001-2017
</metadata>
<g transform="translate(0.000000,512.000000) scale(0.100000,-0.100000)"
fill="#000000" stroke="none">
<path d="M2230 5104 c-996 -127 -1833 -835 -2123 -1794 -78 -256 -107 -462
-107 -750 0 -491 116 -914 363 -1325 404 -672 1099 -1123 1877 -1220 162 -20
478 -20 640 0 1001 124 1842 831 2133 1795 78 256 107 462 107 750 0 491 -116
914 -363 1325 -404 672 -1099 1123 -1877 1220 -153 19 -501 18 -650 -1z m1571
-807 c-4 -109 -42 -364 -76 -510 -19 -84 -37 -163 -40 -177 -5 -22 -4 -23 4
-5 6 11 26 63 45 115 52 142 69 178 74 158 6 -31 -40 -249 -79 -371 -23 -74
-35 -126 -31 -138 6 -15 15 -2 44 63 20 46 39 101 43 123 9 55 168 365 181
353 5 -6 -23 -88 -91 -263 -54 -138 -74 -229 -75 -329 0 -35 -16 -87 -56 -190
-31 -77 -86 -238 -123 -356 -45 -142 -87 -253 -124 -326 -31 -61 -63 -140 -72
-175 -9 -35 -34 -112 -55 -171 -40 -111 -90 -296 -90 -335 0 -13 4 -23 10 -23
5 0 77 25 159 55 226 82 361 112 614 136 147 14 183 5 213 -52 22 -44 12 -83
-36 -135 -22 -24 -40 -48 -40 -53 0 -5 18 -12 39 -16 22 -4 45 -13 52 -21 9
-12 5 -14 -24 -14 -20 0 -48 5 -62 10 -25 10 -33 5 -99 -57 -94 -90 -169 -146
-325 -247 -134 -86 -196 -111 -246 -98 -38 11 -42 27 -11 48 31 20 33 30 6 37
-31 8 -24 41 14 75 19 17 80 61 135 99 56 37 101 71 101 74 0 3 -35 -2 -77
-12 -124 -30 -273 -49 -377 -49 l-96 0 0 -25 c0 -14 7 -42 15 -62 20 -47 12
-53 -23 -20 -36 34 -40 34 -44 -5 -6 -60 -25 -41 -36 38 -5 42 -15 81 -20 86
-6 6 -113 -28 -298 -95 -159 -57 -341 -120 -404 -140 -63 -20 -142 -53 -175
-73 -33 -20 -82 -50 -110 -65 -45 -25 -50 -31 -47 -59 4 -34 -13 -41 -23 -9
-9 26 -39 21 -43 -9 -3 -21 -22 -32 -22 -12 0 18 -20 10 -143 -57 -181 -99
-194 -105 -217 -98 -11 3 -20 11 -20 17 0 12 83 96 145 147 l40 32 -60 -26
c-33 -14 -181 -91 -329 -171 -148 -80 -271 -143 -273 -140 -5 4 18 20 235 159
56 37 102 69 102 71 0 11 -104 -40 -298 -146 -111 -61 -205 -108 -208 -105 -3
3 52 44 123 92 83 56 118 84 98 79 -43 -9 575 297 678 337 l87 32 0 42 c0 32
-20 81 -94 225 -319 625 -536 1067 -631 1290 -59 140 -128 293 -151 340 -48
97 -62 140 -45 140 22 0 112 -155 279 -478 52 -101 -4 72 -88 273 -65 154 -79
224 -40 200 5 -3 -2 25 -16 62 -91 238 -176 571 -135 528 5 -6 93 -208 196
-450 103 -242 268 -620 367 -840 99 -220 200 -449 225 -510 24 -60 61 -139 83
-175 21 -36 46 -82 56 -102 10 -21 21 -38 25 -38 5 0 25 30 45 67 37 66 100
262 150 471 13 57 52 187 85 290 33 103 66 203 72 222 12 37 35 70 48 70 16 0
101 -125 149 -220 26 -52 58 -104 70 -115 41 -37 170 -203 185 -238 8 -19 28
-46 44 -59 45 -36 151 -174 211 -273 112 -187 123 -201 131 -180 13 33 10 83
-6 99 -20 19 -19 86 1 161 9 33 16 71 16 84 0 14 24 82 53 152 29 71 56 152
60 181 14 109 17 124 40 168 14 28 25 73 29 120 4 56 18 106 56 200 55 140 83
240 104 381 10 68 24 115 49 165 26 53 37 91 46 164 6 52 29 158 51 235 21 77
53 196 70 265 17 69 33 131 36 139 9 27 18 0 15 -52z m-406 -254 c-9 -135 -15
-179 -41 -295 -38 -168 -30 -195 17 -58 22 63 55 151 73 195 18 44 39 101 46
127 11 42 48 95 51 72 7 -62 -22 -186 -70 -299 -49 -114 -103 -284 -130 -406
-11 -52 -38 -146 -60 -210 -22 -67 -41 -146 -46 -190 -7 -84 -39 -207 -66
-260 -10 -21 -24 -86 -32 -151 -11 -90 -19 -122 -38 -147 -27 -36 -43 -40 -36
-8 11 45 17 143 8 122 -5 -11 -10 -34 -10 -52 -1 -44 -18 -83 -35 -83 -21 0
-29 35 -21 88 l7 46 -181 176 c-160 157 -213 221 -196 238 2 3 46 -30 97 -73
51 -43 101 -85 111 -93 9 -9 20 -12 24 -9 16 16 -34 99 -108 182 -45 50 -99
112 -120 138 -45 56 -46 55 -19 -13 23 -59 26 -100 6 -100 -14 0 -123 184
-166 282 -14 31 -28 60 -31 62 -3 3 -17 -34 -33 -82 -49 -154 -96 -282 -183
-492 -104 -248 -109 -260 -130 -260 -16 0 -16 11 2 140 l7 45 -33 -55 c-33
-56 -50 -55 -30 2 6 17 9 33 7 36 -6 5 -46 -74 -80 -157 -24 -60 -25 -70 -15
-124 11 -65 8 -77 -17 -56 -34 28 -161 313 -218 488 -15 46 -57 152 -93 235
-93 215 -218 523 -233 574 -7 23 -10 45 -7 48 20 21 70 -69 197 -358 41 -92
75 -166 77 -164 2 2 -1 16 -7 32 -6 16 -29 98 -51 182 -38 147 -52 282 -30
282 11 0 42 -67 70 -152 13 -38 25 -68 27 -68 3 0 2 43 -2 95 -6 84 -5 95 10
95 9 0 30 -19 46 -42 46 -63 283 -543 311 -628 l24 -75 128 260 c103 210 132
278 148 350 21 94 37 122 73 127 17 2 21 11 24 48 2 40 -4 56 -63 149 -59 95
-80 151 -56 151 5 0 27 -28 49 -62 45 -71 98 -136 104 -128 2 3 17 37 32 77
17 44 36 77 51 87 14 9 33 33 44 54 21 42 48 69 58 58 5 -5 -29 -138 -74 -286
-5 -17 -1 -13 49 50 15 19 29 32 32 29 3 -3 -10 -52 -30 -110 -26 -77 -34
-114 -29 -142 19 -127 133 -342 241 -456 l71 -74 28 41 c17 26 37 84 55 160
16 65 40 147 54 183 26 67 56 169 76 254 6 27 31 100 55 162 24 61 47 128 51
148 18 98 43 18 51 -165 l6 -135 24 75 c13 41 30 116 39 165 34 199 69 263 59
108z"/>
<path d="M2466 2653 c-3 -10 -19 -67 -36 -128 -18 -60 -61 -182 -97 -270 -75
-184 -155 -407 -177 -492 -9 -33 -22 -124 -31 -204 -8 -79 -19 -159 -25 -177
-7 -28 -7 -33 5 -28 7 2 202 66 432 141 230 75 436 142 458 149 26 9 39 18 36
27 -2 8 -6 32 -9 54 -3 30 -18 57 -62 110 -87 107 -246 354 -317 494 -35 69
-63 131 -63 139 0 13 -98 202 -105 202 -2 0 -6 -8 -9 -17z"/>
<path d="M3972 1869 c-148 -40 -151 -46 -17 -42 143 4 275 19 289 33 33 33
-159 40 -272 9z"/>
<path d="M3779 1745 c-48 -8 -115 -21 -150 -30 -68 -18 -341 -105 -348 -111
-16 -15 18 -9 96 16 120 39 401 90 533 97 81 5 111 10 129 24 24 19 23 19 -75
18 -55 -1 -138 -7 -185 -14z"/>
<path d="M3676 1398 c-53 -51 -96 -99 -96 -106 0 -8 26 1 73 24 79 40 257 155
257 167 0 4 -31 7 -69 7 l-69 0 -96 -92z"/>
<path d="M3203 3789 c-27 -54 -79 -237 -82 -289 -1 -30 -14 -84 -28 -120 -14
-36 -35 -96 -48 -135 -12 -38 -34 -98 -49 -132 -45 -108 -32 -161 58 -245 66
-62 66 -62 81 6 5 26 4 28 -9 17 -24 -20 -46 -6 -46 29 0 17 18 85 41 153 46
137 65 236 74 388 3 57 10 149 16 204 6 55 10 111 8 124 l-4 24 -12 -24z"/>
<path d="M1720 3395 c0 -22 30 -191 55 -305 25 -119 54 -209 95 -295 58 -123
61 -152 9 -125 -10 6 -19 9 -19 7 0 -12 52 -119 55 -115 18 17 85 196 85 224
0 35 -70 241 -121 352 -24 54 -105 197 -146 257 -13 19 -13 19 -13 0z"/>
</g>
</svg>
